<?xml version="1.0" standalone="no"?>
<!DOCTYPE svg PUBLIC "-//W3C//DTD SVG 20010904//EN"
 "http://www.w3.org/TR/2001/REC-SVG-20010904/DTD/svg10.dtd">
<svg version="1.0" xmlns="http://www.w3.org/2000/svg"
 width="16.000000pt" height="16.000000pt" viewBox="0 0 16.000000 16.000000"
 preserveAspectRatio="xMidYMid meet">
<metadata>
Created by potrace 1.11, written by Peter Selinger 2001-2013
</metadata>
<g transform="translate(0.000000,16.000000) scale(0.002286,-0.002286)"
fill="#000000" stroke="none">
<path d="M2465 6174 c-501 -14 -1149 -13 -1577 3 l-178 6 0 -120 0 -120 168
-6 c260 -11 379 -42 422 -113 28 -45 47 -163 62 -402 18 -276 18 -2954 0
-3412 -14 -353 -28 -636 -38 -742 l-6 -67 -106 -69 c-59 -38 -141 -89 -182
-113 l-75 -44 -3 -94 -3 -93 53 5 c29 4 194 12 367 18 256 10 422 10 900 -2
1337 -32 1688 -1 2176 191 291 115 535 253 735 414 516 416 860 950 1023 1591
107 421 126 889 53 1300 -77 432 -275 814 -590 1143 -417 435 -877 635 -1651
718 -211 22 -902 26 -1550 8z m1045 -324 c745 -70 1237 -315 1576 -785 135
-188 269 -500 328 -766 86 -389 92 -878 15 -1309 -70 -392 -213 -766 -384
-1005 -77 -108 -259 -302 -358 -383 -241 -197 -559 -334 -942 -406 -420 -78
-983 -80 -1526 -5 l-87 12 -6 71 c-39 465 -40 3944 0 4447 l6 77 91 11 c170
22 371 41 527 50 183 11 597 6 760 -9z"/>
</g>
</svg>
